<?xml version="1.0" encoding="UTF-8" standalone="no"?>
<svg
   width="49.741558mm"
   height="45.583775mm"
   viewBox="0 0 49.741558 45.583774"
   version="1.1"
   id="svg8"
   inkscape:version="1.1.2 (b8e25be833, 2022-02-05)"
   sodipodi:docname="enlarged_figure_of_vector.svg"
   inkscape:export-filename="C:\Users\sd22034\Desktop\zenn-docs\images\2653b3d92536da\enlarged_figure_of_vector.png"
   inkscape:export-xdpi="700"
   inkscape:export-ydpi="700"
   xmlns:inkscape="http://www.inkscape.org/namespaces/inkscape"
   xmlns:sodipodi="http://sodipodi.sourceforge.net/DTD/sodipodi-0.dtd"
   xmlns:xlink="http://www.w3.org/1999/xlink"
   xmlns="http://www.w3.org/2000/svg"
   xmlns:svg="http://www.w3.org/2000/svg"
   xmlns:rdf="http://www.w3.org/1999/02/22-rdf-syntax-ns#"
   xmlns:cc="http://creativecommons.org/ns#"
   xmlns:dc="http://purl.org/dc/elements/1.1/">
  <defs
     id="defs2">
    <marker
       inkscape:stockid="Arrow1Sstart"
       orient="auto"
       refY="0"
       refX="0"
       id="Arrow1Sstart"
       style="overflow:visible"
       inkscape:isstock="true">
      <path
         id="path857"
         d="M 0,0 5,-5 -12.5,0 5,5 Z"
         style="fill:#000000;fill-opacity:1;fill-rule:evenodd;stroke:#000000;stroke-width:1pt;stroke-opacity:1"
         transform="matrix(0.2,0,0,0.2,1.2,0)" />
    </marker>
    <marker
       inkscape:stockid="Arrow1Send"
       orient="auto"
       refY="0"
       refX="0"
       id="Arrow1Send"
       style="overflow:visible"
       inkscape:isstock="true">
      <path
         id="path860"
         d="M 0,0 5,-5 -12.5,0 5,5 Z"
         style="fill:#000000;fill-opacity:1;fill-rule:evenodd;stroke:#000000;stroke-width:1pt;stroke-opacity:1"
         transform="matrix(-0.2,0,0,-0.2,-1.2,0)" />
    </marker>
    <marker
       inkscape:stockid="Arrow1Lend"
       orient="auto"
       refY="0"
       refX="0"
       id="marker1191"
       style="overflow:visible"
       inkscape:isstock="true">
      <path
         id="path1189"
         d="M 0,0 5,-5 -12.5,0 5,5 Z"
         style="fill:#000000;fill-opacity:1;fill-rule:evenodd;stroke:#000000;stroke-width:1pt;stroke-opacity:1"
         transform="matrix(-0.8,0,0,-0.8,-10,0)" />
    </marker>
    <marker
       inkscape:isstock="true"
       style="overflow:visible"
       id="marker1143"
       refX="0"
       refY="0"
       orient="auto"
       inkscape:stockid="Arrow1Lend"
       inkscape:collect="always">
      <path
         transform="matrix(-0.8,0,0,-0.8,-10,0)"
         style="fill:#000000;fill-opacity:1;fill-rule:evenodd;stroke:#000000;stroke-width:1pt;stroke-opacity:1"
         d="M 0,0 5,-5 -12.5,0 5,5 Z"
         id="path1141" />
    </marker>
    <marker
       inkscape:stockid="Arrow1Lend"
       orient="auto"
       refY="0"
       refX="0"
       id="Arrow1Lend"
       style="overflow:visible"
       inkscape:isstock="true"
       inkscape:collect="always">
      <path
         id="path848"
         d="M 0,0 5,-5 -12.5,0 5,5 Z"
         style="fill:#000000;fill-opacity:1;fill-rule:evenodd;stroke:#000000;stroke-width:1pt;stroke-opacity:1"
         transform="matrix(-0.8,0,0,-0.8,-10,0)" />
    </marker>
    <marker
       inkscape:stockid="Arrow1Lstart"
       orient="auto"
       refY="0"
       refX="0"
       id="Arrow1Lstart"
       style="overflow:visible"
       inkscape:isstock="true">
      <path
         id="path845"
         d="M 0,0 5,-5 -12.5,0 5,5 Z"
         style="fill:#000000;fill-opacity:1;fill-rule:evenodd;stroke:#000000;stroke-width:1pt;stroke-opacity:1"
         transform="matrix(0.8,0,0,0.8,10,0)" />
    </marker>
    <g
       id="g7069">
      <symbol
         overflow="visible"
         id="symbol57">
        <path
           style="stroke:none"
           d=""
           id="path2762" />
      </symbol>
      <symbol
         overflow="visible"
         id="symbol1151">
        <path
           style="stroke:none"
           d="m 4.671875,-3.703125 c 0,-0.546875 -0.265625,-0.703125 -0.4375,-0.703125 -0.25,0 -0.5,0.265625 -0.5,0.484375 0,0.125 0.046875,0.1875 0.15625,0.296875 0.21875,0.203125 0.34375,0.453125 0.34375,0.8125 0,0.421875 -0.609375,2.703125 -1.765625,2.703125 -0.515625,0 -0.75,-0.34375 -0.75,-0.875 0,-0.546875 0.28125,-1.28125 0.578125,-2.109375 0.078125,-0.171875 0.125,-0.3125 0.125,-0.5 0,-0.4375 -0.3125,-0.8125 -0.8125,-0.8125 -0.9375,0 -1.3125,1.453125 -1.3125,1.53125 0,0.109375 0.09375,0.109375 0.109375,0.109375 0.109375,0 0.109375,-0.03125 0.15625,-0.1875 0.296875,-1 0.71875,-1.234375 1.015625,-1.234375 0.078125,0 0.25,0 0.25,0.3125 0,0.25 -0.109375,0.53125 -0.171875,0.703125 -0.4375,1.15625 -0.5625,1.609375 -0.5625,2.046875 0,1.078125 0.875,1.234375 1.328125,1.234375 1.671875,0 2.25,-3.296875 2.25,-3.8125 z m 0,0"
           id="path4399" />
      </symbol>
      <symbol
         overflow="visible"
         id="symbol6756">
        <path
           style="stroke:none"
           d=""
           id="path6836" />
      </symbol>
      <symbol
         overflow="visible"
         id="symbol7727">
        <path
           style="stroke:none"
           d="m 1.71875,-2.75 h 0.703125 c 0.140625,0 0.21875,0 0.21875,-0.15625 C 2.640625,-3 2.5625,-3 2.4375,-3 H 1.78125 l 0.25,-1.03125 C 2.046875,-4.0625 2.0625,-4.109375 2.0625,-4.125 c 0,-0.140625 -0.109375,-0.234375 -0.25,-0.234375 -0.171875,0 -0.265625,0.125 -0.328125,0.296875 C 1.4375,-3.875 1.53125,-4.21875 1.21875,-3 H 0.515625 c -0.125,0 -0.21875,0 -0.21875,0.15625 C 0.296875,-2.75 0.375,-2.75 0.5,-2.75 H 1.15625 L 0.75,-1.109375 C 0.703125,-0.9375 0.640625,-0.6875 0.640625,-0.59375 c 0,0.40625 0.359375,0.65625 0.75,0.65625 0.78125,0 1.21875,-0.96875 1.21875,-1.0625 0,-0.09375 -0.09375,-0.09375 -0.109375,-0.09375 -0.09375,0 -0.09375,0.015625 -0.15625,0.140625 -0.1875,0.4375 -0.546875,0.828125 -0.921875,0.828125 -0.15625,0 -0.25,-0.09375 -0.25,-0.34375 0,-0.0625 0.03125,-0.21875 0.046875,-0.28125 z m 0,0"
           id="path9236" />
      </symbol>
      <symbol
         overflow="visible"
         id="symbol7410">
        <path
           style="stroke:none"
           d="m 1.640625,-1.40625 c 0,-0.046875 0.171875,-0.671875 0.171875,-0.703125 0.015625,-0.0625 0.21875,-0.40625 0.453125,-0.578125 0.0625,-0.046875 0.25,-0.1875 0.5625,-0.1875 0.0625,0 0.234375,0 0.375,0.09375 -0.21875,0.0625 -0.296875,0.265625 -0.296875,0.390625 0,0.140625 0.109375,0.25 0.265625,0.25 0.171875,0 0.390625,-0.125 0.390625,-0.421875 0,-0.359375 -0.375,-0.515625 -0.734375,-0.515625 -0.359375,0 -0.671875,0.15625 -0.984375,0.5 -0.125,-0.421875 -0.546875,-0.5 -0.71875,-0.5 -0.25,0 -0.421875,0.171875 -0.546875,0.359375 -0.15625,0.265625 -0.25,0.671875 -0.25,0.71875 0,0.078125 0.09375,0.078125 0.125,0.078125 0.09375,0 0.09375,-0.015625 0.140625,-0.203125 0.109375,-0.421875 0.25,-0.75 0.515625,-0.75 0.1875,0 0.234375,0.15625 0.234375,0.34375 0,0.125 -0.0625,0.390625 -0.125,0.578125 -0.046875,0.1875 -0.109375,0.46875 -0.140625,0.625 L 0.84375,-0.4375 C 0.828125,-0.34375 0.78125,-0.171875 0.78125,-0.15625 0.78125,0 0.90625,0.0625 1.015625,0.0625 1.125,0.0625 1.265625,0 1.3125,-0.125 1.328125,-0.171875 1.40625,-0.484375 1.453125,-0.65625 Z m 0,0"
           id="path3002" />
      </symbol>
      <symbol
         overflow="visible"
         id="symbol3202">
        <path
           style="stroke:none"
           d="m 2.9375,-2.65625 c -0.140625,-0.234375 -0.375,-0.421875 -0.71875,-0.421875 -0.890625,0 -1.796875,0.984375 -1.796875,1.984375 0,0.6875 0.453125,1.15625 1.0625,1.15625 0.375,0 0.703125,-0.203125 0.984375,-0.484375 C 2.59375,0 3,0.0625 3.1875,0.0625 c 0.25,0 0.421875,-0.140625 0.546875,-0.359375 0.15625,-0.28125 0.25,-0.671875 0.25,-0.703125 0,-0.09375 -0.09375,-0.09375 -0.109375,-0.09375 -0.109375,0 -0.109375,0.03125 -0.15625,0.21875 C 3.625,-0.53125 3.5,-0.125 3.203125,-0.125 3.03125,-0.125 2.96875,-0.28125 2.96875,-0.46875 c 0,-0.109375 0.0625,-0.375 0.109375,-0.546875 0.046875,-0.1875 0.125,-0.46875 0.15625,-0.625 L 3.375,-2.171875 C 3.421875,-2.359375 3.5,-2.6875 3.5,-2.71875 3.5,-2.875 3.375,-2.9375 3.265625,-2.9375 c -0.125,0 -0.28125,0.078125 -0.328125,0.28125 z M 2.5,-0.875 C 2.453125,-0.671875 2.296875,-0.53125 2.140625,-0.40625 2.078125,-0.34375 1.796875,-0.125 1.5,-0.125 c -0.265625,0 -0.515625,-0.1875 -0.515625,-0.671875 0,-0.375 0.203125,-1.140625 0.375,-1.421875 0.3125,-0.5625 0.671875,-0.65625 0.859375,-0.65625 0.484375,0 0.625,0.53125 0.625,0.609375 0,0.015625 -0.015625,0.078125 -0.015625,0.09375 z m 0,0"
           id="path4723" />
      </symbol>
      <symbol
         overflow="visible"
         id="symbol680">
        <path
           style="stroke:none"
           d="m 0.84375,-0.4375 c -0.015625,0.09375 -0.0625,0.265625 -0.0625,0.28125 0,0.15625 0.125,0.21875 0.234375,0.21875 0.125,0 0.234375,-0.078125 0.28125,-0.140625 0.03125,-0.0625 0.078125,-0.296875 0.125,-0.4375 0.03125,-0.125 0.109375,-0.453125 0.140625,-0.625 0.046875,-0.15625 0.09375,-0.3125 0.125,-0.46875 0.078125,-0.28125 0.09375,-0.34375 0.296875,-0.625 C 2.171875,-2.515625 2.5,-2.875 3.03125,-2.875 c 0.390625,0 0.40625,0.359375 0.40625,0.484375 0,0.421875 -0.296875,1.1875 -0.40625,1.484375 -0.078125,0.203125 -0.109375,0.265625 -0.109375,0.375 0,0.375 0.296875,0.59375 0.65625,0.59375 0.703125,0 1,-0.953125 1,-1.0625 0,-0.09375 -0.078125,-0.09375 -0.109375,-0.09375 -0.09375,0 -0.09375,0.046875 -0.125,0.125 C 4.1875,-0.40625 3.875,-0.125 3.609375,-0.125 c -0.15625,0 -0.1875,-0.09375 -0.1875,-0.25 0,-0.15625 0.046875,-0.25 0.171875,-0.5625 0.078125,-0.21875 0.359375,-0.953125 0.359375,-1.34375 0,-0.671875 -0.53125,-0.796875 -0.90625,-0.796875 -0.578125,0 -0.96875,0.359375 -1.171875,0.640625 -0.046875,-0.484375 -0.453125,-0.640625 -0.75,-0.640625 -0.296875,0 -0.453125,0.21875 -0.546875,0.375 -0.15625,0.265625 -0.25,0.65625 -0.25,0.703125 0,0.078125 0.09375,0.078125 0.125,0.078125 0.09375,0 0.09375,-0.015625 0.140625,-0.203125 0.109375,-0.40625 0.25,-0.75 0.515625,-0.75 0.1875,0 0.234375,0.15625 0.234375,0.34375 0,0.125 -0.0625,0.390625 -0.125,0.578125 -0.046875,0.1875 -0.109375,0.46875 -0.140625,0.625 z m 0,0"
           id="path57" />
      </symbol>
      <symbol
         overflow="visible"
         id="symbol1673">
        <path
           style="stroke:none"
           d="m 3,-2.625 c -0.171875,0.046875 -0.296875,0.1875 -0.296875,0.328125 0,0.171875 0.140625,0.234375 0.234375,0.234375 0.078125,0 0.34375,-0.046875 0.34375,-0.40625 0,-0.453125 -0.5,-0.609375 -0.9375,-0.609375 -1.078125,0 -1.28125,0.8125 -1.28125,1.015625 0,0.265625 0.15625,0.4375 0.25,0.515625 0.171875,0.140625 0.296875,0.171875 0.78125,0.25 0.15625,0.03125 0.59375,0.109375 0.59375,0.453125 0,0.125 -0.078125,0.390625 -0.359375,0.5625 C 2.046875,-0.125 1.703125,-0.125 1.625,-0.125 1.34375,-0.125 0.953125,-0.1875 0.78125,-0.421875 1.015625,-0.453125 1.171875,-0.625 1.171875,-0.8125 c 0,-0.171875 -0.125,-0.265625 -0.265625,-0.265625 -0.203125,0 -0.40625,0.171875 -0.40625,0.46875 0,0.421875 0.4375,0.671875 1.109375,0.671875 1.296875,0 1.53125,-0.875 1.53125,-1.140625 0,-0.640625 -0.703125,-0.765625 -0.96875,-0.8125 -0.0625,-0.015625 -0.234375,-0.046875 -0.28125,-0.0625 -0.25,-0.046875 -0.375,-0.1875 -0.375,-0.34375 0,-0.15625 0.125,-0.34375 0.28125,-0.453125 0.1875,-0.109375 0.421875,-0.125 0.546875,-0.125 0.140625,0 0.5,0.015625 0.65625,0.25 z m 0,0"
           id="path1033" />
      </symbol>
      <symbol
         overflow="visible"
         id="symbol9619">
        <path
           style="stroke:none"
           d="m 1.46875,-0.109375 c 0,0.375 -0.0625,0.828125 -0.546875,1.265625 C 0.90625,1.1875 0.875,1.21875 0.875,1.25 c 0,0.046875 0.0625,0.09375 0.09375,0.09375 0.109375,0 0.703125,-0.5625 0.703125,-1.390625 0,-0.421875 -0.171875,-0.75 -0.5,-0.75 -0.21875,0 -0.390625,0.171875 -0.390625,0.390625 C 0.78125,-0.1875 0.9375,0 1.1875,0 1.359375,0 1.46875,-0.109375 1.46875,-0.109375 Z m 0,0"
           id="path1466" />
      </symbol>
      <symbol
         overflow="visible"
         id="symbol9901">
        <path
           style="stroke:none"
           d="m 2.265625,-4.359375 c 0,-0.109375 -0.09375,-0.265625 -0.28125,-0.265625 -0.1875,0 -0.390625,0.1875 -0.390625,0.390625 0,0.109375 0.078125,0.265625 0.28125,0.265625 0.1875,0 0.390625,-0.203125 0.390625,-0.390625 z M 0.84375,-0.8125 c -0.03125,0.09375 -0.0625,0.171875 -0.0625,0.296875 0,0.328125 0.265625,0.578125 0.65625,0.578125 0.6875,0 1,-0.953125 1,-1.0625 0,-0.09375 -0.09375,-0.09375 -0.109375,-0.09375 -0.09375,0 -0.109375,0.046875 -0.140625,0.125 -0.15625,0.5625 -0.453125,0.84375 -0.734375,0.84375 -0.140625,0 -0.171875,-0.09375 -0.171875,-0.25 0,-0.15625 0.046875,-0.28125 0.109375,-0.4375 C 1.46875,-1 1.546875,-1.1875 1.609375,-1.375 1.671875,-1.546875 1.9375,-2.171875 1.953125,-2.265625 1.984375,-2.328125 2,-2.40625 2,-2.484375 2,-2.8125 1.71875,-3.078125 1.34375,-3.078125 0.640625,-3.078125 0.328125,-2.125 0.328125,-2 c 0,0.078125 0.09375,0.078125 0.125,0.078125 0.09375,0 0.09375,-0.03125 0.125,-0.109375 C 0.75,-2.625 1.0625,-2.875 1.3125,-2.875 c 0.109375,0 0.171875,0.046875 0.171875,0.234375 0,0.171875 -0.03125,0.265625 -0.203125,0.703125 z m 0,0"
           id="path2976" />
      </symbol>
    </g>
    <g
       id="g2984">
      <symbol
         overflow="visible"
         id="symbol5887">
        <path
           style="stroke:none"
           d=""
           id="path6717" />
      </symbol>
      <symbol
         overflow="visible"
         id="symbol12">
        <path
           style="stroke:none"
           d="m 4.53125,-4.984375 c 0,-0.65625 -0.171875,-2.046875 -1.1875,-2.046875 -1.390625,0 -2.921875,2.8125 -2.921875,5.09375 0,0.9375 0.28125,2.046875 1.1875,2.046875 1.40625,0 2.921875,-2.859375 2.921875,-5.09375 z M 1.46875,-3.625 C 1.640625,-4.25 1.84375,-5.046875 2.25,-5.765625 2.515625,-6.25 2.875,-6.8125 3.328125,-6.8125 c 0.484375,0 0.546875,0.640625 0.546875,1.203125 0,0.5 -0.078125,1 -0.3125,1.984375 z m 2,0.328125 C 3.359375,-2.84375 3.15625,-2 2.765625,-1.28125 c -0.34375,0.6875 -0.71875,1.171875 -1.15625,1.171875 -0.328125,0 -0.53125,-0.296875 -0.53125,-1.21875 0,-0.421875 0.0625,-1 0.3125,-1.96875 z m 0,0"
           id="path8136" />
      </symbol>
    </g>
    <g
       id="g6358">
      <symbol
         overflow="visible"
         id="symbol1130">
        <path
           style="stroke:none"
           d=""
           id="path5582" />
      </symbol>
      <symbol
         overflow="visible"
         id="symbol1193">
        <path
           style="stroke:none"
           d="m 1.90625,-6.140625 c 0,-0.265625 -0.21875,-0.53125 -0.515625,-0.53125 -0.34375,0 -0.546875,0.28125 -0.546875,0.53125 0,0.265625 0.234375,0.53125 0.53125,0.53125 0.34375,0 0.53125,-0.28125 0.53125,-0.53125 z m 0,0"
           id="path4277" />
      </symbol>
      <symbol
         overflow="visible"
         id="symbol2612">
        <path
           style="stroke:none"
           d=""
           id="path1596" />
      </symbol>
      <symbol
         overflow="visible"
         id="symbol4722">
        <path
           style="stroke:none"
           d="M 3.328125,-3.015625 C 3.390625,-3.265625 3.625,-4.1875 4.3125,-4.1875 c 0.046875,0 0.296875,0 0.5,0.125 C 4.53125,-4 4.34375,-3.765625 4.34375,-3.515625 c 0,0.15625 0.109375,0.34375 0.375,0.34375 0.21875,0 0.53125,-0.171875 0.53125,-0.578125 0,-0.515625 -0.578125,-0.65625 -0.921875,-0.65625 -0.578125,0 -0.921875,0.53125 -1.046875,0.75 -0.25,-0.65625 -0.78125,-0.75 -1.078125,-0.75 -1.03125,0 -1.609375,1.28125 -1.609375,1.53125 0,0.109375 0.109375,0.109375 0.125,0.109375 0.078125,0 0.109375,-0.03125 0.125,-0.109375 0.34375,-1.0625 1,-1.3125 1.34375,-1.3125 0.1875,0 0.53125,0.09375 0.53125,0.671875 0,0.3125 -0.171875,0.96875 -0.53125,2.375 -0.15625,0.609375 -0.515625,1.03125 -0.953125,1.03125 -0.0625,0 -0.28125,0 -0.5,-0.125 0.25,-0.0625 0.46875,-0.265625 0.46875,-0.546875 0,-0.265625 -0.21875,-0.34375 -0.359375,-0.34375 -0.3125,0 -0.546875,0.25 -0.546875,0.578125 0,0.453125 0.484375,0.65625 0.921875,0.65625 0.671875,0 1.03125,-0.703125 1.046875,-0.75 0.125,0.359375 0.484375,0.75 1.078125,0.75 1.03125,0 1.59375,-1.28125 1.59375,-1.53125 0,-0.109375 -0.078125,-0.109375 -0.109375,-0.109375 -0.09375,0 -0.109375,0.046875 -0.140625,0.109375 -0.328125,1.078125 -1,1.3125 -1.3125,1.3125 -0.390625,0 -0.546875,-0.3125 -0.546875,-0.65625 0,-0.21875 0.046875,-0.4375 0.15625,-0.875 z m 0,0"
           id="path761" />
      </symbol>
    </g>
    <g
       id="g2070">
      <symbol
         overflow="visible"
         id="symbol3620">
        <path
           style="stroke:none"
           d=""
           id="path7744" />
      </symbol>
      <symbol
         overflow="visible"
         id="symbol349">
        <path
           style="stroke:none"
           d="m 1.90625,-6.140625 c 0,-0.265625 -0.21875,-0.53125 -0.515625,-0.53125 -0.34375,0 -0.546875,0.28125 -0.546875,0.53125 0,0.265625 0.234375,0.53125 0.53125,0.53125 0.34375,0 0.53125,-0.28125 0.53125,-0.53125 z m 0,0"
           id="path5784" />
      </symbol>
      <symbol
         overflow="visible"
         id="symbol1730">
        <path
           style="stroke:none"
           d=""
           id="path9152" />
      </symbol>
      <symbol
         overflow="visible"
         id="symbol3275">
        <path
           style="stroke:none"
           d="m 4.84375,-3.796875 c 0.046875,-0.140625 0.046875,-0.15625 0.046875,-0.234375 0,-0.171875 -0.140625,-0.265625 -0.296875,-0.265625 -0.09375,0 -0.25,0.0625 -0.34375,0.203125 -0.015625,0.0625 -0.109375,0.359375 -0.140625,0.546875 -0.078125,0.25 -0.140625,0.53125 -0.203125,0.796875 l -0.453125,1.796875 c -0.03125,0.140625 -0.46875,0.84375 -1.125,0.84375 -0.5,0 -0.609375,-0.4375 -0.609375,-0.8125 C 1.71875,-1.375 1.890625,-2 2.21875,-2.875 2.375,-3.28125 2.421875,-3.390625 2.421875,-3.59375 c 0,-0.4375 -0.3125,-0.8125 -0.8125,-0.8125 -0.953125,0 -1.3125,1.453125 -1.3125,1.53125 0,0.109375 0.09375,0.109375 0.109375,0.109375 0.109375,0 0.109375,-0.03125 0.15625,-0.1875 0.28125,-0.9375 0.671875,-1.234375 1.015625,-1.234375 0.078125,0 0.25,0 0.25,0.3125 0,0.25 -0.109375,0.515625 -0.171875,0.703125 -0.40625,1.0625 -0.578125,1.625 -0.578125,2.09375 0,0.890625 0.625,1.1875 1.21875,1.1875 0.390625,0 0.71875,-0.171875 1,-0.453125 -0.125,0.515625 -0.25,1.015625 -0.640625,1.546875 -0.265625,0.328125 -0.640625,0.625 -1.09375,0.625 -0.140625,0 -0.59375,-0.03125 -0.765625,-0.421875 0.15625,0 0.296875,0 0.421875,-0.125 C 1.328125,1.203125 1.421875,1.0625 1.421875,0.875 1.421875,0.5625 1.15625,0.53125 1.0625,0.53125 0.828125,0.53125 0.5,0.6875 0.5,1.171875 c 0,0.5 0.4375,0.875 1.0625,0.875 1.015625,0 2.046875,-0.90625 2.328125,-2.03125 z m 0,0"
           id="path4270" />
      </symbol>
    </g>
    <g
       id="g9967">
      <symbol
         overflow="visible"
         id="symbol2895">
        <path
           style="stroke:none"
           d=""
           id="path7808" />
      </symbol>
      <symbol
         overflow="visible"
         id="symbol450">
        <path
           style="stroke:none"
           d="M 5.453125,-4.890625 C 5.453125,-6.640625 4.421875,-7 3.8125,-7 c -0.796875,0 -1.78125,0.515625 -2.53125,1.875 -0.515625,0.9375 -0.828125,2.296875 -0.828125,3.09375 0,1.453125 0.765625,2.109375 1.65625,2.109375 0.671875,0 1.546875,-0.390625 2.234375,-1.40625 0.84375,-1.21875 1.109375,-2.8125 1.109375,-3.5625 z m -3.484375,1.1875 c 0.140625,-0.578125 0.40625,-1.484375 0.703125,-2 0.234375,-0.40625 0.640625,-0.9375 1.109375,-0.9375 0.421875,0 0.609375,0.4375 0.609375,1.03125 0,0.625 -0.21875,1.5 -0.328125,1.90625 z M 3.9375,-3.21875 c -0.625,2.671875 -1.453125,2.9375 -1.796875,2.9375 C 2,-0.28125 1.78125,-0.3125 1.640625,-0.625 1.53125,-0.890625 1.53125,-1.28125 1.53125,-1.296875 c 0,-0.5625 0.21875,-1.5 0.328125,-1.921875 z m 0,0"
           id="path5803" />
      </symbol>
    </g>
    <g
       id="g8303">
      <symbol
         overflow="visible"
         id="symbol954">
        <path
           style="stroke:none"
           d=""
           id="path2086" />
      </symbol>
      <symbol
         overflow="visible"
         id="symbol209">
        <path
           style="stroke:none"
           d="m 5.390625,-3.609375 c 0,-0.90625 -0.671875,-0.90625 -0.671875,-0.90625 -0.40625,0 -0.765625,0.421875 -0.765625,0.75 0,0.28125 0.21875,0.40625 0.296875,0.453125 0.421875,0.25 0.5,0.4375 0.5,0.625 0,0.21875 -0.578125,2.40625 -1.734375,2.40625 -0.71875,0 -0.71875,-0.59375 -0.71875,-0.78125 0,-0.578125 0.28125,-1.296875 0.59375,-2.09375 C 2.96875,-3.359375 3,-3.453125 3,-3.609375 3,-4.1875 2.421875,-4.5 1.875,-4.5 c -1.0625,0 -1.5625,1.34375 -1.5625,1.546875 0,0.140625 0.15625,0.140625 0.25,0.140625 0.109375,0 0.1875,0 0.21875,-0.125 0.328125,-1.078125 0.859375,-1.203125 1.03125,-1.203125 0.078125,0 0.171875,0 0.171875,0.203125 0,0.234375 -0.125,0.515625 -0.15625,0.59375 C 1.375,-2.1875 1.21875,-1.734375 1.21875,-1.25 c 0,1.046875 0.859375,1.328125 1.734375,1.328125 1.71875,0 2.4375,-2.828125 2.4375,-3.6875 z m 0,0"
           id="path2928" />
      </symbol>
      <symbol
         overflow="visible"
         id="symbol6748">
        <path
           style="stroke:none"
           d=""
           id="path4038" />
      </symbol>
      <symbol
         overflow="visible"
         id="symbol1677">
        <path
           style="stroke:none"
           d="M 1.40625,-2.75 H 2.484375 V -3 H 1.40625 v -1.28125 h -0.25 c 0,0.625 -0.28125,1.3125 -0.953125,1.328125 V -2.75 H 0.84375 v 1.875 c 0,0.78125 0.59375,0.9375 0.984375,0.9375 0.46875,0 0.78125,-0.390625 0.78125,-0.9375 V -1.265625 H 2.375 v 0.375 c 0,0.484375 -0.21875,0.734375 -0.5,0.734375 -0.46875,0 -0.46875,-0.578125 -0.46875,-0.703125 z m 0,0"
           id="path7104" />
      </symbol>
      <symbol
         overflow="visible"
         id="symbol7127">
        <path
           style="stroke:none"
           d="m 1.390625,-1.59375 c 0,-0.578125 0.265625,-1.28125 0.9375,-1.28125 -0.0625,0.046875 -0.125,0.140625 -0.125,0.25 0,0.234375 0.1875,0.3125 0.3125,0.3125 0.171875,0 0.328125,-0.109375 0.328125,-0.3125 0,-0.234375 -0.234375,-0.453125 -0.5625,-0.453125 -0.34375,0 -0.734375,0.21875 -0.9375,0.75 v -0.75 L 0.34375,-3 v 0.25 c 0.46875,0 0.515625,0.046875 0.515625,0.390625 v 1.8125 C 0.859375,-0.25 0.796875,-0.25 0.34375,-0.25 V 0 c 0.03125,0 0.5,-0.03125 0.796875,-0.03125 0.296875,0 0.59375,0.015625 0.90625,0.03125 V -0.25 H 1.90625 c -0.515625,0 -0.515625,-0.078125 -0.515625,-0.3125 z m 0,0"
           id="path2860" />
      </symbol>
      <symbol
         overflow="visible"
         id="symbol5618">
        <path
           style="stroke:none"
           d="m 3.109375,-1.875 c 0,-0.359375 0,-0.625 -0.328125,-0.890625 C 2.5,-3 2.171875,-3.109375 1.75,-3.109375 c -0.65625,0 -1.125,0.25 -1.125,0.671875 0,0.234375 0.15625,0.34375 0.34375,0.34375 0.1875,0 0.328125,-0.140625 0.328125,-0.328125 0,-0.109375 -0.0625,-0.265625 -0.25,-0.3125 0.25,-0.171875 0.65625,-0.171875 0.6875,-0.171875 0.390625,0 0.828125,0.25 0.828125,0.84375 v 0.203125 C 2.171875,-1.84375 1.71875,-1.8125 1.203125,-1.625 c -0.625,0.21875 -0.8125,0.609375 -0.8125,0.921875 0,0.59375 0.71875,0.765625 1.21875,0.765625 0.546875,0 0.875,-0.3125 1.03125,-0.578125 0.015625,0.28125 0.203125,0.546875 0.53125,0.546875 0.015625,0 0.6875,0 0.6875,-0.65625 V -1.015625 H 3.625 v 0.375 c 0,0.078125 0,0.40625 -0.265625,0.40625 -0.25,0 -0.25,-0.328125 -0.25,-0.40625 z M 2.5625,-0.984375 c 0,0.671875 -0.59375,0.859375 -0.90625,0.859375 -0.359375,0 -0.6875,-0.234375 -0.6875,-0.578125 0,-0.390625 0.328125,-0.921875 1.59375,-0.96875 z m 0,0"
           id="path9512" />
      </symbol>
      <symbol
         overflow="visible"
         id="symbol4532">
        <path
           style="stroke:none"
           d="m 3.59375,-2.109375 c 0,-0.609375 -0.296875,-0.96875 -1.046875,-0.96875 -0.578125,0 -0.9375,0.3125 -1.140625,0.6875 v -0.6875 L 0.375,-3 v 0.25 c 0.46875,0 0.53125,0.046875 0.53125,0.390625 v 1.8125 C 0.90625,-0.25 0.828125,-0.25 0.375,-0.25 V 0 C 0.390625,0 0.875,-0.03125 1.171875,-0.03125 1.421875,-0.03125 1.90625,0 1.96875,0 v -0.25 c -0.453125,0 -0.515625,0 -0.515625,-0.296875 V -1.8125 c 0,-0.71875 0.578125,-1.0625 1.03125,-1.0625 0.484375,0 0.546875,0.375 0.546875,0.734375 v 1.59375 C 3.03125,-0.25 2.96875,-0.25 2.515625,-0.25 V 0 C 2.53125,0 3.015625,-0.03125 3.3125,-0.03125 3.5625,-0.03125 4.046875,0 4.109375,0 v -0.25 c -0.453125,0 -0.515625,0 -0.515625,-0.296875 z m 0,0"
           id="path1905" />
      </symbol>
      <symbol
         overflow="visible"
         id="symbol891">
        <path
           style="stroke:none"
           d="m 2.640625,-2.921875 c 0,-0.125 0,-0.1875 -0.09375,-0.1875 -0.03125,0 -0.046875,0 -0.140625,0.078125 -0.015625,0.015625 -0.078125,0.078125 -0.125,0.109375 -0.21875,-0.140625 -0.46875,-0.1875 -0.734375,-0.1875 -1,0 -1.234375,0.53125 -1.234375,0.875 0,0.21875 0.09375,0.40625 0.265625,0.546875 0.265625,0.21875 0.53125,0.265625 0.96875,0.34375 0.34375,0.0625 0.90625,0.15625 0.90625,0.625 0,0.265625 -0.1875,0.59375 -0.859375,0.59375 -0.671875,0 -0.90625,-0.4375 -1.03125,-0.90625 -0.03125,-0.09375 -0.03125,-0.125 -0.125,-0.125 -0.125,0 -0.125,0.046875 -0.125,0.1875 v 0.859375 C 0.3125,0 0.3125,0.0625 0.40625,0.0625 0.46875,0.0625 0.609375,-0.078125 0.75,-0.234375 1.046875,0.0625 1.421875,0.0625 1.59375,0.0625 c 0.90625,0 1.25,-0.484375 1.25,-0.96875 0,-0.265625 -0.125,-0.484375 -0.3125,-0.640625 -0.265625,-0.25 -0.578125,-0.3125 -0.828125,-0.34375 -0.546875,-0.109375 -1,-0.1875 -1,-0.5625 0,-0.21875 0.1875,-0.484375 0.84375,-0.484375 0.8125,0 0.84375,0.5625 0.859375,0.765625 0,0.078125 0.09375,0.078125 0.109375,0.078125 0.125,0 0.125,-0.046875 0.125,-0.1875 z m 0,0"
           id="path751" />
      </symbol>
      <symbol
         overflow="visible"
         id="symbol8549">
        <path
           style="stroke:none"
           d=""
           id="path246" />
      </symbol>
      <symbol
         overflow="visible"
         id="symbol7480">
        <path
           style="stroke:none"
           d="m 1.46875,-0.109375 c 0,0.375 -0.0625,0.828125 -0.546875,1.265625 C 0.90625,1.1875 0.875,1.21875 0.875,1.25 c 0,0.046875 0.0625,0.09375 0.09375,0.09375 0.109375,0 0.703125,-0.5625 0.703125,-1.390625 0,-0.421875 -0.171875,-0.75 -0.5,-0.75 -0.21875,0 -0.390625,0.171875 -0.390625,0.390625 C 0.78125,-0.1875 0.9375,0 1.1875,0 1.359375,0 1.46875,-0.109375 1.46875,-0.109375 Z m 0,0"
           id="path6263" />
      </symbol>
      <symbol
         overflow="visible"
         id="symbol3373">
        <path
           style="stroke:none"
           d="m 2.265625,-4.359375 c 0,-0.109375 -0.09375,-0.265625 -0.28125,-0.265625 -0.1875,0 -0.390625,0.1875 -0.390625,0.390625 0,0.109375 0.078125,0.265625 0.28125,0.265625 0.1875,0 0.390625,-0.203125 0.390625,-0.390625 z M 0.84375,-0.8125 c -0.03125,0.09375 -0.0625,0.171875 -0.0625,0.296875 0,0.328125 0.265625,0.578125 0.65625,0.578125 0.6875,0 1,-0.953125 1,-1.0625 0,-0.09375 -0.09375,-0.09375 -0.109375,-0.09375 -0.09375,0 -0.109375,0.046875 -0.140625,0.125 -0.15625,0.5625 -0.453125,0.84375 -0.734375,0.84375 -0.140625,0 -0.171875,-0.09375 -0.171875,-0.25 0,-0.15625 0.046875,-0.28125 0.109375,-0.4375 C 1.46875,-1 1.546875,-1.1875 1.609375,-1.375 1.671875,-1.546875 1.9375,-2.171875 1.953125,-2.265625 1.984375,-2.328125 2,-2.40625 2,-2.484375 2,-2.8125 1.71875,-3.078125 1.34375,-3.078125 0.640625,-3.078125 0.328125,-2.125 0.328125,-2 c 0,0.078125 0.09375,0.078125 0.125,0.078125 0.09375,0 0.09375,-0.03125 0.125,-0.109375 C 0.75,-2.625 1.0625,-2.875 1.3125,-2.875 c 0.109375,0 0.171875,0.046875 0.171875,0.234375 0,0.171875 -0.03125,0.265625 -0.203125,0.703125 z m 0,0"
           id="path4125" />
      </symbol>
    </g>
    <g
       id="g5892">
      <symbol
         overflow="visible"
         id="symbol4322">
        <path
           style="stroke:none"
           d=""
           id="path3609" />
      </symbol>
      <symbol
         overflow="visible"
         id="symbol6691">
        <path
           style="stroke:none"
           d="m 1.90625,-6.140625 c 0,-0.265625 -0.21875,-0.53125 -0.515625,-0.53125 -0.34375,0 -0.546875,0.28125 -0.546875,0.53125 0,0.265625 0.234375,0.53125 0.53125,0.53125 0.34375,0 0.53125,-0.28125 0.53125,-0.53125 z m 0,0"
           id="path4542" />
      </symbol>
      <symbol
         overflow="visible"
         id="symbol6141">
        <path
           style="stroke:none"
           d=""
           id="path1083" />
      </symbol>
      <symbol
         overflow="visible"
         id="symbol7919">
        <path
           style="stroke:none"
           d="m 5.75,-3.765625 c 0.046875,-0.171875 0.046875,-0.1875 0.046875,-0.21875 0,-0.21875 -0.15625,-0.4375 -0.46875,-0.4375 -0.515625,0 -0.640625,0.46875 -0.703125,0.734375 L 4.359375,-2.65625 C 4.25,-2.171875 4.0625,-1.40625 3.953125,-1 3.890625,-0.78125 3.59375,-0.53125 3.5625,-0.515625 3.453125,-0.453125 3.203125,-0.28125 2.875,-0.28125 c -0.578125,0 -0.59375,-0.5 -0.59375,-0.71875 0,-0.609375 0.3125,-1.390625 0.59375,-2.109375 C 2.96875,-3.375 3,-3.4375 3,-3.609375 3,-4.1875 2.421875,-4.5 1.875,-4.5 c -1.0625,0 -1.5625,1.34375 -1.5625,1.546875 0,0.140625 0.15625,0.140625 0.25,0.140625 0.109375,0 0.1875,0 0.21875,-0.125 0.328125,-1.109375 0.890625,-1.203125 1.03125,-1.203125 0.078125,0 0.171875,0 0.171875,0.203125 0,0.234375 -0.109375,0.484375 -0.171875,0.640625 -0.390625,1 -0.59375,1.578125 -0.59375,2.078125 0,1.140625 1,1.296875 1.578125,1.296875 0.25,0 0.59375,-0.03125 0.96875,-0.296875 C 3.484375,1 2.734375,1.65625 2.046875,1.65625 1.90625,1.65625 1.640625,1.640625 1.4375,1.515625 1.75,1.390625 1.90625,1.109375 1.90625,0.84375 1.90625,0.484375 1.625,0.390625 1.421875,0.390625 c -0.359375,0 -0.71875,0.3125 -0.71875,0.75 0,0.515625 0.53125,0.875 1.34375,0.875 1.140625,0 2.453125,-0.765625 2.765625,-2 z m 0,0"
           id="path989" />
      </symbol>
    </g>
    <g
       id="g9584">
      <symbol
         overflow="visible"
         id="symbol8801">
        <path
           style="stroke:none"
           d=""
           id="path24" />
      </symbol>
      <symbol
         overflow="visible"
         id="symbol7300">
        <path
           style="stroke:none"
           d="m 1.90625,-6.140625 c 0,-0.265625 -0.21875,-0.53125 -0.515625,-0.53125 -0.34375,0 -0.546875,0.28125 -0.546875,0.53125 0,0.265625 0.234375,0.53125 0.53125,0.53125 0.34375,0 0.53125,-0.28125 0.53125,-0.53125 z m 0,0"
           id="path4379" />
      </symbol>
      <symbol
         overflow="visible"
         id="symbol262">
        <path
           style="stroke:none"
           d=""
           id="path1549" />
      </symbol>
      <symbol
         overflow="visible"
         id="symbol1826">
        <path
           style="stroke:none"
           d="m 5.34375,-4 c -0.359375,0.109375 -0.53125,0.4375 -0.53125,0.6875 0,0.21875 0.15625,0.46875 0.484375,0.46875 0.359375,0 0.71875,-0.296875 0.71875,-0.78125 C 6.015625,-4.15625 5.5,-4.5 4.890625,-4.5 4.3125,-4.5 3.953125,-4.078125 3.8125,-3.890625 3.5625,-4.3125 3.015625,-4.5 2.4375,-4.5 c -1.25,0 -1.921875,1.21875 -1.921875,1.546875 0,0.140625 0.140625,0.140625 0.234375,0.140625 0.125,0 0.1875,0 0.234375,-0.125 0.28125,-0.90625 1,-1.203125 1.40625,-1.203125 0.375,0 0.5625,0.171875 0.5625,0.484375 0,0.203125 -0.140625,0.75 -0.234375,1.109375 L 2.375,-1.1875 c -0.140625,0.609375 -0.5,0.90625 -0.84375,0.90625 -0.046875,0 -0.28125,0 -0.46875,-0.140625 0.359375,-0.109375 0.53125,-0.453125 0.53125,-0.6875 0,-0.21875 -0.171875,-0.46875 -0.5,-0.46875 -0.34375,0 -0.71875,0.296875 -0.71875,0.78125 0,0.53125 0.53125,0.875 1.140625,0.875 0.5625,0 0.9375,-0.421875 1.0625,-0.609375 0.25,0.421875 0.8125,0.609375 1.375,0.609375 1.265625,0 1.9375,-1.21875 1.9375,-1.546875 0,-0.140625 -0.15625,-0.140625 -0.234375,-0.140625 -0.125,0 -0.1875,0 -0.234375,0.125 -0.28125,0.90625 -1,1.203125 -1.421875,1.203125 -0.375,0 -0.546875,-0.171875 -0.546875,-0.5 0,-0.203125 0.125,-0.734375 0.21875,-1.109375 0.0625,-0.25 0.296875,-1.1875 0.34375,-1.34375 0.15625,-0.609375 0.5,-0.90625 0.84375,-0.90625 0.0625,0 0.28125,0 0.484375,0.140625 z m 0,0"
           id="path2609" />
      </symbol>
    </g>
    <g
       id="g7332">
      <symbol
         overflow="visible"
         id="symbol2955">
        <path
           style="stroke:none"
           d=""
           id="path4446" />
      </symbol>
      <symbol
         overflow="visible"
         id="symbol9758">
        <path
           style="stroke:none"
           d="m 4.53125,-4.984375 c 0,-0.65625 -0.171875,-2.046875 -1.1875,-2.046875 -1.390625,0 -2.921875,2.8125 -2.921875,5.09375 0,0.9375 0.28125,2.046875 1.1875,2.046875 1.40625,0 2.921875,-2.859375 2.921875,-5.09375 z M 1.46875,-3.625 C 1.640625,-4.25 1.84375,-5.046875 2.25,-5.765625 2.515625,-6.25 2.875,-6.8125 3.328125,-6.8125 c 0.484375,0 0.546875,0.640625 0.546875,1.203125 0,0.5 -0.078125,1 -0.3125,1.984375 z m 2,0.328125 C 3.359375,-2.84375 3.15625,-2 2.765625,-1.28125 c -0.34375,0.6875 -0.71875,1.171875 -1.15625,1.171875 -0.328125,0 -0.53125,-0.296875 -0.53125,-1.21875 0,-0.421875 0.0625,-1 0.3125,-1.96875 z m 0,0"
           id="path2712" />
      </symbol>
    </g>
    <g
       id="g422">
      <symbol
         overflow="visible"
         id="symbol5092">
        <path
           style="stroke:none;"
           d=""
           id="path7247" />
      </symbol>
      <symbol
         overflow="visible"
         id="symbol5498">
        <path
           style="stroke:none;"
           d="M 5.453125 -4.890625 C 5.453125 -6.640625 4.421875 -7 3.8125 -7 C 3.015625 -7 2.03125 -6.484375 1.28125 -5.125 C 0.765625 -4.1875 0.453125 -2.828125 0.453125 -2.03125 C 0.453125 -0.578125 1.21875 0.078125 2.109375 0.078125 C 2.78125 0.078125 3.65625 -0.3125 4.34375 -1.328125 C 5.1875 -2.546875 5.453125 -4.140625 5.453125 -4.890625 Z M 1.96875 -3.703125 C 2.109375 -4.28125 2.375 -5.1875 2.671875 -5.703125 C 2.90625 -6.109375 3.3125 -6.640625 3.78125 -6.640625 C 4.203125 -6.640625 4.390625 -6.203125 4.390625 -5.609375 C 4.390625 -4.984375 4.171875 -4.109375 4.0625 -3.703125 Z M 3.9375 -3.21875 C 3.3125 -0.546875 2.484375 -0.28125 2.140625 -0.28125 C 2 -0.28125 1.78125 -0.3125 1.640625 -0.625 C 1.53125 -0.890625 1.53125 -1.28125 1.53125 -1.296875 C 1.53125 -1.859375 1.75 -2.796875 1.859375 -3.21875 Z M 3.9375 -3.21875 "
           id="path560" />
      </symbol>
    </g>
    <g
       id="g8755">
      <symbol
         overflow="visible"
         id="symbol4050">
        <path
           style="stroke:none;"
           d=""
           id="path1312" />
      </symbol>
      <symbol
         overflow="visible"
         id="symbol6494">
        <path
           style="stroke:none;"
           d="M 5.390625 -3.609375 C 5.390625 -4.515625 4.71875 -4.515625 4.71875 -4.515625 C 4.3125 -4.515625 3.953125 -4.09375 3.953125 -3.765625 C 3.953125 -3.484375 4.171875 -3.359375 4.25 -3.3125 C 4.671875 -3.0625 4.75 -2.875 4.75 -2.6875 C 4.75 -2.46875 4.171875 -0.28125 3.015625 -0.28125 C 2.296875 -0.28125 2.296875 -0.875 2.296875 -1.0625 C 2.296875 -1.640625 2.578125 -2.359375 2.890625 -3.15625 C 2.96875 -3.359375 3 -3.453125 3 -3.609375 C 3 -4.1875 2.421875 -4.5 1.875 -4.5 C 0.8125 -4.5 0.3125 -3.15625 0.3125 -2.953125 C 0.3125 -2.8125 0.46875 -2.8125 0.5625 -2.8125 C 0.671875 -2.8125 0.75 -2.8125 0.78125 -2.9375 C 1.109375 -4.015625 1.640625 -4.140625 1.8125 -4.140625 C 1.890625 -4.140625 1.984375 -4.140625 1.984375 -3.9375 C 1.984375 -3.703125 1.859375 -3.421875 1.828125 -3.34375 C 1.375 -2.1875 1.21875 -1.734375 1.21875 -1.25 C 1.21875 -0.203125 2.078125 0.078125 2.953125 0.078125 C 4.671875 0.078125 5.390625 -2.75 5.390625 -3.609375 Z M 5.390625 -3.609375 "
           id="path6602" />
      </symbol>
      <symbol
         overflow="visible"
         id="symbol6749">
        <path
           style="stroke:none;"
           d=""
           id="path5244" />
      </symbol>
      <symbol
         overflow="visible"
         id="symbol6446">
        <path
           style="stroke:none;"
           d="M 1.40625 -2.75 L 2.484375 -2.75 L 2.484375 -3 L 1.40625 -3 L 1.40625 -4.28125 L 1.15625 -4.28125 C 1.15625 -3.65625 0.875 -2.96875 0.203125 -2.953125 L 0.203125 -2.75 L 0.84375 -2.75 L 0.84375 -0.875 C 0.84375 -0.09375 1.4375 0.0625 1.828125 0.0625 C 2.296875 0.0625 2.609375 -0.328125 2.609375 -0.875 L 2.609375 -1.265625 L 2.375 -1.265625 L 2.375 -0.890625 C 2.375 -0.40625 2.15625 -0.15625 1.875 -0.15625 C 1.40625 -0.15625 1.40625 -0.734375 1.40625 -0.859375 Z M 1.40625 -2.75 "
           id="path3602" />
      </symbol>
      <symbol
         overflow="visible"
         id="symbol7363">
        <path
           style="stroke:none;"
           d="M 1.390625 -1.59375 C 1.390625 -2.171875 1.65625 -2.875 2.328125 -2.875 C 2.265625 -2.828125 2.203125 -2.734375 2.203125 -2.625 C 2.203125 -2.390625 2.390625 -2.3125 2.515625 -2.3125 C 2.6875 -2.3125 2.84375 -2.421875 2.84375 -2.625 C 2.84375 -2.859375 2.609375 -3.078125 2.28125 -3.078125 C 1.9375 -3.078125 1.546875 -2.859375 1.34375 -2.328125 L 1.34375 -3.078125 L 0.34375 -3 L 0.34375 -2.75 C 0.8125 -2.75 0.859375 -2.703125 0.859375 -2.359375 L 0.859375 -0.546875 C 0.859375 -0.25 0.796875 -0.25 0.34375 -0.25 L 0.34375 0 C 0.375 0 0.84375 -0.03125 1.140625 -0.03125 C 1.4375 -0.03125 1.734375 -0.015625 2.046875 0 L 2.046875 -0.25 L 1.90625 -0.25 C 1.390625 -0.25 1.390625 -0.328125 1.390625 -0.5625 Z M 1.390625 -1.59375 "
           id="path8329" />
      </symbol>
      <symbol
         overflow="visible"
         id="symbol9743">
        <path
           style="stroke:none;"
           d="M 3.109375 -1.875 C 3.109375 -2.234375 3.109375 -2.5 2.78125 -2.765625 C 2.5 -3 2.171875 -3.109375 1.75 -3.109375 C 1.09375 -3.109375 0.625 -2.859375 0.625 -2.4375 C 0.625 -2.203125 0.78125 -2.09375 0.96875 -2.09375 C 1.15625 -2.09375 1.296875 -2.234375 1.296875 -2.421875 C 1.296875 -2.53125 1.234375 -2.6875 1.046875 -2.734375 C 1.296875 -2.90625 1.703125 -2.90625 1.734375 -2.90625 C 2.125 -2.90625 2.5625 -2.65625 2.5625 -2.0625 L 2.5625 -1.859375 C 2.171875 -1.84375 1.71875 -1.8125 1.203125 -1.625 C 0.578125 -1.40625 0.390625 -1.015625 0.390625 -0.703125 C 0.390625 -0.109375 1.109375 0.0625 1.609375 0.0625 C 2.15625 0.0625 2.484375 -0.25 2.640625 -0.515625 C 2.65625 -0.234375 2.84375 0.03125 3.171875 0.03125 C 3.1875 0.03125 3.859375 0.03125 3.859375 -0.625 L 3.859375 -1.015625 L 3.625 -1.015625 L 3.625 -0.640625 C 3.625 -0.5625 3.625 -0.234375 3.359375 -0.234375 C 3.109375 -0.234375 3.109375 -0.5625 3.109375 -0.640625 Z M 2.5625 -0.984375 C 2.5625 -0.3125 1.96875 -0.125 1.65625 -0.125 C 1.296875 -0.125 0.96875 -0.359375 0.96875 -0.703125 C 0.96875 -1.09375 1.296875 -1.625 2.5625 -1.671875 Z M 2.5625 -0.984375 "
           id="path4947" />
      </symbol>
      <symbol
         overflow="visible"
         id="symbol6907">
        <path
           style="stroke:none;"
           d="M 3.59375 -2.109375 C 3.59375 -2.71875 3.296875 -3.078125 2.546875 -3.078125 C 1.96875 -3.078125 1.609375 -2.765625 1.40625 -2.390625 L 1.40625 -3.078125 L 0.375 -3 L 0.375 -2.75 C 0.84375 -2.75 0.90625 -2.703125 0.90625 -2.359375 L 0.90625 -0.546875 C 0.90625 -0.25 0.828125 -0.25 0.375 -0.25 L 0.375 0 C 0.390625 0 0.875 -0.03125 1.171875 -0.03125 C 1.421875 -0.03125 1.90625 0 1.96875 0 L 1.96875 -0.25 C 1.515625 -0.25 1.453125 -0.25 1.453125 -0.546875 L 1.453125 -1.8125 C 1.453125 -2.53125 2.03125 -2.875 2.484375 -2.875 C 2.96875 -2.875 3.03125 -2.5 3.03125 -2.140625 L 3.03125 -0.546875 C 3.03125 -0.25 2.96875 -0.25 2.515625 -0.25 L 2.515625 0 C 2.53125 0 3.015625 -0.03125 3.3125 -0.03125 C 3.5625 -0.03125 4.046875 0 4.109375 0 L 4.109375 -0.25 C 3.65625 -0.25 3.59375 -0.25 3.59375 -0.546875 Z M 3.59375 -2.109375 "
           id="path7562" />
      </symbol>
      <symbol
         overflow="visible"
         id="symbol8642">
        <path
           style="stroke:none;"
           d="M 2.640625 -2.921875 C 2.640625 -3.046875 2.640625 -3.109375 2.546875 -3.109375 C 2.515625 -3.109375 2.5 -3.109375 2.40625 -3.03125 C 2.390625 -3.015625 2.328125 -2.953125 2.28125 -2.921875 C 2.0625 -3.0625 1.8125 -3.109375 1.546875 -3.109375 C 0.546875 -3.109375 0.3125 -2.578125 0.3125 -2.234375 C 0.3125 -2.015625 0.40625 -1.828125 0.578125 -1.6875 C 0.84375 -1.46875 1.109375 -1.421875 1.546875 -1.34375 C 1.890625 -1.28125 2.453125 -1.1875 2.453125 -0.71875 C 2.453125 -0.453125 2.265625 -0.125 1.59375 -0.125 C 0.921875 -0.125 0.6875 -0.5625 0.5625 -1.03125 C 0.53125 -1.125 0.53125 -1.15625 0.4375 -1.15625 C 0.3125 -1.15625 0.3125 -1.109375 0.3125 -0.96875 L 0.3125 -0.109375 C 0.3125 0 0.3125 0.0625 0.40625 0.0625 C 0.46875 0.0625 0.609375 -0.078125 0.75 -0.234375 C 1.046875 0.0625 1.421875 0.0625 1.59375 0.0625 C 2.5 0.0625 2.84375 -0.421875 2.84375 -0.90625 C 2.84375 -1.171875 2.71875 -1.390625 2.53125 -1.546875 C 2.265625 -1.796875 1.953125 -1.859375 1.703125 -1.890625 C 1.15625 -2 0.703125 -2.078125 0.703125 -2.453125 C 0.703125 -2.671875 0.890625 -2.9375 1.546875 -2.9375 C 2.359375 -2.9375 2.390625 -2.375 2.40625 -2.171875 C 2.40625 -2.09375 2.5 -2.09375 2.515625 -2.09375 C 2.640625 -2.09375 2.640625 -2.140625 2.640625 -2.28125 Z M 2.640625 -2.921875 "
           id="path2532" />
      </symbol>
      <symbol
         overflow="visible"
         id="symbol2246">
        <path
           style="stroke:none;"
           d="M 2.328125 -4.4375 C 2.328125 -4.625 2.328125 -4.625 2.125 -4.625 C 1.671875 -4.1875 1.046875 -4.1875 0.765625 -4.1875 L 0.765625 -3.9375 C 0.921875 -3.9375 1.390625 -3.9375 1.765625 -4.125 L 1.765625 -0.578125 C 1.765625 -0.34375 1.765625 -0.25 1.078125 -0.25 L 0.8125 -0.25 L 0.8125 0 C 0.9375 0 1.796875 -0.03125 2.046875 -0.03125 C 2.265625 -0.03125 3.140625 0 3.296875 0 L 3.296875 -0.25 L 3.03125 -0.25 C 2.328125 -0.25 2.328125 -0.34375 2.328125 -0.578125 Z M 2.328125 -4.4375 "
           id="path2702" />
      </symbol>
      <symbol
         overflow="visible"
         id="symbol6323">
        <path
           style="stroke:none;"
           d=""
           id="path4344" />
      </symbol>
      <symbol
         overflow="visible"
         id="symbol7992">
        <path
           style="stroke:none;"
           d="M 1.46875 -0.109375 C 1.46875 0.265625 1.40625 0.71875 0.921875 1.15625 C 0.90625 1.1875 0.875 1.21875 0.875 1.25 C 0.875 1.296875 0.9375 1.34375 0.96875 1.34375 C 1.078125 1.34375 1.671875 0.78125 1.671875 -0.046875 C 1.671875 -0.46875 1.5 -0.796875 1.171875 -0.796875 C 0.953125 -0.796875 0.78125 -0.625 0.78125 -0.40625 C 0.78125 -0.1875 0.9375 0 1.1875 0 C 1.359375 0 1.46875 -0.109375 1.46875 -0.109375 Z M 1.46875 -0.109375 "
           id="path5067" />
      </symbol>
    </g>
  </defs>
  <sodipodi:namedview
     fit-margin-bottom="0"
     fit-margin-right="0"
     fit-margin-left="0"
     fit-margin-top="0"
     lock-margins="true"
     id="base"
     pagecolor="#ffffff"
     bordercolor="#666666"
     borderopacity="1.0"
     inkscape:pageopacity="0.0"
     inkscape:pageshadow="2"
     inkscape:zoom="2.8"
     inkscape:cx="1.4285714"
     inkscape:cy="63.928571"
     inkscape:document-units="mm"
     inkscape:current-layer="g1344"
     inkscape:document-rotation="0"
     showgrid="true"
     inkscape:window-width="1920"
     inkscape:window-height="974"
     inkscape:window-x="-11"
     inkscape:window-y="-11"
     inkscape:window-maximized="1"
     inkscape:pagecheckerboard="0">
    <inkscape:grid
       originy="-131.49196"
       originx="-57.218216"
       type="xygrid"
       id="grid833" />
  </sodipodi:namedview>
  <metadata
     id="metadata5">
    <rdf:RDF>
      <cc:Work
         rdf:about="">
        <dc:format>image/svg+xml</dc:format>
        <dc:type
           rdf:resource="http://purl.org/dc/dcmitype/StillImage" />
        <dc:title />
      </cc:Work>
    </rdf:RDF>
  </metadata>
  <g
     transform="translate(-57.2182, -131.492)"
     inkscape:label="レイヤー 1"
     inkscape:groupmode="layer"
     id="layer1">
    <path
       style="fill:none;stroke:#000000;stroke-width:0.264583px;stroke-linecap:butt;stroke-linejoin:miter;stroke-opacity:1;marker-start:url(#Arrow1Lstart);marker-end:url(#marker1143)"
       d="m 89.958332,137.58333 v 34.39583 l 14.552088,1e-5"
       id="path835" />
    <path
       style="fill:none;stroke:#000000;stroke-width:0.264583px;stroke-linecap:butt;stroke-linejoin:miter;stroke-opacity:1;marker-end:url(#Arrow1Lend)"
       d="M 89.958332,171.97916 75.406249,137.58333"
       id="path839" />
    <path
       style="fill:none;stroke:#000000;stroke-width:0.264583;stroke-linecap:butt;stroke-linejoin:miter;stroke-miterlimit:4;stroke-dasharray:1.5875, 1.5875;stroke-dashoffset:0;stroke-opacity:1"
       d="m 75.406249,137.58333 v 34.39583 l 14.552084,1e-5"
       id="path841" />
    <path
       style="fill:none;stroke:#000000;stroke-width:0.265;stroke-linecap:butt;stroke-linejoin:miter;stroke-miterlimit:4;stroke-dasharray:1.59, 1.59;stroke-dashoffset:0;stroke-opacity:1"
       d="M 75.406249,137.58333 H 89.958332"
       id="path843" />
    <path
       style="opacity:0.996;fill:none;stroke:#000000;stroke-width:0.3;stroke-miterlimit:4;stroke-dasharray:none;stroke-dashoffset:0;stroke-opacity:1;marker-start:url(#Arrow1Sstart)"
       id="path1187"
       sodipodi:type="arc"
       sodipodi:cx="89.958336"
       sodipodi:cy="171.97917"
       sodipodi:rx="13.229166"
       sodipodi:ry="13.229166"
       sodipodi:start="4.3483211"
       sodipodi:end="4.7147821"
       sodipodi:arc-type="arc"
       d="m 85.247715,159.6171 a 13.229166,13.229166 0 0 1 4.74228,-0.86706"
       sodipodi:open="true" />
    <g
       inkscape:label=""
       transform="matrix(0.6334359,0,0,0.6334359,32.296679,83.887948)"
       id="g1810">
      <g
         id="g910">
        <g
           style="fill:#000000;fill-opacity:1"
           id="g8660">
          <use
             xlink:href="#symbol6691"
             x="93.666"
             y="81.823997"
             id="use9239"
             width="100%"
             height="100%" />
        </g>
        <g
           style="fill:#000000;fill-opacity:1"
           id="g4087">
          <use
             xlink:href="#symbol7919"
             x="91.925003"
             y="81.962997"
             id="use6613"
             width="100%"
             height="100%" />
        </g>
      </g>
    </g>
    <g
       inkscape:label=""
       transform="matrix(0.6641108,0,0,0.6641108,41.916329,122.59138)"
       id="g2172">
      <g
         id="g3459">
        <g
           style="fill:#000000;fill-opacity:1"
           id="g2486">
          <use
             xlink:href="#symbol7300"
             x="93.823997"
             y="81.823997"
             id="use5005"
             width="100%"
             height="100%" />
        </g>
        <g
           style="fill:#000000;fill-opacity:1"
           id="g86">
          <use
             xlink:href="#symbol1826"
             x="91.925003"
             y="81.962997"
             id="use263"
             width="100%"
             height="100%" />
        </g>
      </g>
    </g>
    <g
       inkscape:label=""
       transform="matrix(0.756319 0 0 0.756319 42.2792 95.6397)"
       id="g1285">
      <g
         inkscape:label=""
         transform="matrix(0.821875,0,0,0.821875,-9.61799,10.6947)"
         id="g1299">
        <g
           id="g4886"
           transform="translate(-11.173283,4.0284624)"
           inkscape:export-filename="C:\Users\sd22034\Desktop\zenn-docs\images\2653b3d92536da\g4886.png"
           inkscape:export-xdpi="700"
           inkscape:export-ydpi="700">
          <g
             style="fill:#000000;fill-opacity:1"
             id="g6662">
            <use
               xlink:href="#symbol5498"
               x="91.925003"
               y="81.962997"
               id="use7165"
               width="100%"
               height="100%" />
          </g>
        </g>
        <g
           inkscape:label=""
           transform="matrix(1.3379674,0,0,1.3379674,-91.913628,-66.923052)"
           id="g1344">
          <g
             id="g5896"
             transform="translate(3.1678694,5.9537362)">
            <g
               style="fill:#000000;fill-opacity:1"
               id="g3355">
              <use
                 xlink:href="#symbol6494"
                 x="91.925003"
                 y="81.962997"
                 id="use8012"
                 width="100%"
                 height="100%" />
            </g>
            <g
               style="fill:#000000;fill-opacity:1"
               id="g6776">
              <use
                 xlink:href="#symbol6446"
                 x="97.940002"
                 y="83.457001"
                 id="use9639"
                 width="100%"
                 height="100%" />
              <use
                 xlink:href="#symbol7363"
                 x="101.0531"
                 y="83.457001"
                 id="use2980"
                 width="100%"
                 height="100%" />
              <use
                 xlink:href="#symbol9743"
                 x="104.16621"
                 y="83.457001"
                 id="use9619"
                 width="100%"
                 height="100%" />
              <use
                 xlink:href="#symbol6907"
                 x="108.13779"
                 y="83.457001"
                 id="use1687"
                 width="100%"
                 height="100%" />
              <use
                 xlink:href="#symbol8642"
                 x="112.53825"
                 y="83.457001"
                 id="use7354"
                 width="100%"
                 height="100%" />
            </g>
            <g
               style="fill:#000000;fill-opacity:1"
               id="g6654">
              <use
                 xlink:href="#symbol7992"
                 x="115.694"
                 y="83.457001"
                 id="use8316"
                 width="100%"
                 height="100%" />
            </g>
            <g
               style="fill:#000000;fill-opacity:1"
               id="g3975">
              <use
                 xlink:href="#symbol2246"
                 x="118.06"
                 y="83.457001"
                 id="use3073"
                 width="100%"
                 height="100%" />
            </g>
          </g>
        </g>
      </g>
    </g>
  </g>
</svg>
